<svg width="32" height="32" viewBox="0 0 32 32" fill="none" xmlns="http://www.w3.org/2000/svg">
<path d="M16 2.66669C8.63333 2.66669 2.66666 8.63335 2.66666 16C2.66515 18.7991 3.54508 21.5275 5.18161 23.7983C6.81815 26.069 9.12819 27.7668 11.784 28.6507C12.4507 28.7667 12.7 28.3667 12.7 28.016C12.7 27.7 12.6827 26.6507 12.6827 25.5334C9.33333 26.1507 8.46666 24.7174 8.19999 23.9667C8.04933 23.5827 7.39999 22.4 6.83333 22.0827C6.36666 21.8334 5.69999 21.216 6.81599 21.2C7.86666 21.1827 8.61599 22.1667 8.86666 22.5667C10.0667 24.5827 11.984 24.016 12.7493 23.6667C12.8667 22.8 13.216 22.2174 13.6 21.884C10.6333 21.5507 7.53333 20.4 7.53333 15.3C7.53333 13.8494 8.04933 12.6507 8.89999 11.716C8.76666 11.3827 8.29999 10.016 9.03333 8.18269C9.03333 8.18269 10.1493 7.83335 12.7 9.55069C13.7854 9.24943 14.9069 9.09781 16.0333 9.10002C17.1667 9.10002 18.3 9.24935 19.3667 9.54935C21.916 7.81602 23.0333 8.18402 23.0333 8.18402C23.7667 10.0174 23.3 11.384 23.1667 11.7174C24.016 12.6507 24.5333 13.8334 24.5333 15.3C24.5333 20.4174 21.4173 21.5507 18.4507 21.884C18.9333 22.3 19.3507 23.1 19.3507 24.3507C19.3507 26.1334 19.3333 27.5667 19.3333 28.0174C19.3333 28.3667 19.584 28.7827 20.2507 28.6494C22.8974 27.7558 25.1972 26.0547 26.8265 23.7856C28.4558 21.5164 29.3326 18.7935 29.3333 16C29.3333 8.63335 23.3667 2.66669 16 2.66669Z" fill="#303133"/>
</svg>
